<svg width="64" height="64" viewBox="0 0 64 64" fill="none" xmlns="http://www.w3.org/2000/svg">
<rect width="64" height="64" rx="3" fill="black"/>
<path d="M6.29119 39V25.9091H8.60511V30.8054H8.70099C8.82031 30.5668 8.98864 30.3132 9.20597 30.0447C9.4233 29.772 9.71733 29.5398 10.0881 29.348C10.4588 29.152 10.9318 29.054 11.5071 29.054C12.2656 29.054 12.9496 29.2479 13.5589 29.6357C14.1726 30.0192 14.6584 30.5881 15.0163 31.3423C15.3786 32.0923 15.5597 33.0128 15.5597 34.1037C15.5597 35.1818 15.3828 36.098 15.0291 36.8523C14.6754 37.6065 14.1939 38.1818 13.5845 38.5781C12.9751 38.9744 12.2848 39.1726 11.5135 39.1726C10.951 39.1726 10.4844 39.0788 10.1136 38.8913C9.7429 38.7038 9.4446 38.478 9.21875 38.2138C8.99716 37.9453 8.82457 37.6918 8.70099 37.4531H8.56676V39H6.29119ZM8.56037 34.0909C8.56037 34.7259 8.64986 35.282 8.82884 35.7592C9.01207 36.2365 9.27415 36.6094 9.61506 36.8778C9.96023 37.142 10.3778 37.2741 10.8679 37.2741C11.3793 37.2741 11.8075 37.1378 12.1527 36.8651C12.4979 36.5881 12.7578 36.2109 12.9325 35.7337C13.1115 35.2521 13.201 34.7045 13.201 34.0909C13.201 33.4815 13.1136 32.9403 12.9389 32.4673C12.7642 31.9943 12.5043 31.6236 12.1591 31.3551C11.8139 31.0866 11.3835 30.9524 10.8679 30.9524C10.3736 30.9524 9.95384 31.0824 9.60866 31.3423C9.26349 31.6023 9.00142 31.9666 8.82244 32.4354C8.64773 32.9041 8.56037 33.456 8.56037 34.0909ZM18.631 42.6818C18.3157 42.6818 18.0238 42.6563 17.7553 42.6051C17.4911 42.5582 17.2802 42.5028 17.1225 42.4389L17.6594 40.6364C17.9961 40.7344 18.2965 40.7813 18.5607 40.777C18.8249 40.7727 19.0572 40.6896 19.2575 40.5277C19.462 40.37 19.6346 40.1058 19.7752 39.7351L19.9734 39.2045L16.413 29.1818H18.8675L21.1303 36.5966H21.2326L23.5018 29.1818H25.9627L22.0316 40.1889C21.8484 40.7088 21.6055 41.1541 21.3029 41.5249C21.0004 41.8999 20.6296 42.1854 20.1907 42.3814C19.756 42.5817 19.2362 42.6818 18.631 42.6818ZM32.4666 29.1818V30.9716H26.8224V29.1818H32.4666ZM28.2159 26.8295H30.5298V36.0469C30.5298 36.358 30.5767 36.5966 30.6705 36.7628C30.7685 36.9247 30.8963 37.0355 31.054 37.0952C31.2116 37.1548 31.3864 37.1847 31.5781 37.1847C31.723 37.1847 31.8551 37.174 31.9744 37.1527C32.098 37.1314 32.1918 37.1122 32.2557 37.0952L32.6456 38.9041C32.522 38.9467 32.3452 38.9936 32.1151 39.0447C31.8892 39.0959 31.6122 39.1257 31.2841 39.1342C30.7045 39.1513 30.1825 39.0639 29.718 38.8722C29.2536 38.6761 28.8849 38.3736 28.6122 37.9645C28.3438 37.5554 28.2116 37.044 28.2159 36.4304V26.8295ZM38.6429 39.1918C37.6586 39.1918 36.8084 38.9872 36.0925 38.5781C35.3809 38.1648 34.8333 37.581 34.4498 36.8267C34.0662 36.0682 33.8745 35.1754 33.8745 34.1484C33.8745 33.1385 34.0662 32.2521 34.4498 31.4893C34.8375 30.7223 35.3787 30.1257 36.0733 29.6996C36.7679 29.2692 37.584 29.054 38.5215 29.054C39.1266 29.054 39.6976 29.152 40.2346 29.348C40.7757 29.5398 41.253 29.8381 41.6664 30.2429C42.084 30.6477 42.4121 31.1634 42.6507 31.7898C42.8894 32.4119 43.0087 33.1534 43.0087 34.0142V34.7237H34.9611V33.1641H40.7907C40.7864 32.7209 40.6905 32.3267 40.503 31.9815C40.3155 31.6321 40.0534 31.3572 39.7168 31.157C39.3844 30.9567 38.9966 30.8565 38.5534 30.8565C38.0804 30.8565 37.665 30.9716 37.307 31.2017C36.949 31.4276 36.6699 31.7259 36.4696 32.0966C36.2736 32.4631 36.1735 32.8658 36.1692 33.3047V34.6662C36.1692 35.2372 36.2736 35.7273 36.4824 36.1364C36.6912 36.5412 36.9831 36.8523 37.3581 37.0696C37.7331 37.2827 38.1721 37.3892 38.6749 37.3892C39.0115 37.3892 39.3162 37.3423 39.589 37.2486C39.8617 37.1506 40.0982 37.0078 40.2985 36.8203C40.4988 36.6328 40.65 36.4006 40.7523 36.1236L42.9128 36.3665C42.7765 36.9375 42.5165 37.4361 42.133 37.8622C41.7537 38.2841 41.2679 38.6122 40.6756 38.8466C40.0833 39.0767 39.4057 39.1918 38.6429 39.1918ZM45.7589 41.7805V25.5384H50.3803V27.3153H47.9833V40.0099H50.3803V41.7805H45.7589ZM55.9622 25.5384V41.7805H51.3407V40.0099H53.7377V27.3153H51.3407V25.5384H55.9622Z" fill="white"/>
</svg>
